# xmcd CD database file
#
# Track frame offsets:
#	150
#	18569
#	36154
#	50252
#	64476
#	84048
#	101997
#	120071
#	137106
#	152940
#	166388
#	187092
#	207495
#	223982
#
# Disc length: 3179 seconds
#
# Revision: 0
# Processed by: cddbd v1.5.1PL2 Copyright (c) Steve Scherf et al.
# Submitted via: CDex 1.50
#
DISCID=cc0c690e
DTITLE=David Lee Murphy - Tryin' To Get There
DYEAR=2004
DGENRE=Country
TTITLE0=I Like It Already
TTITLE1=Same Ol' Same Ol'
TTITLE2=Loco
TTITLE3=Own Little World
TTITLE4=Tryin' To Get There
TTITLE5=Inspiration
TTITLE6=Ghost In The Jukebox
TTITLE7=She Always Said
TTITLE8=Mama's Last
TTITLE9=Beggin' For Afternoon
TTITLE10=Might Be Me
TTITLE11=Killin' The Pain
TTITLE12=Hidden Track 1
TTITLE13=Hidden Track 2
EXTD=YEAR: 2004
EXTT0=
EXTT1=
EXTT2=
EXTT3=
EXTT4=
EXTT5=
EXTT6=
EXTT7=
EXTT8=
EXTT9=
EXTT10=
EXTT11=
EXTT12=
EXTT13=
PLAYORDER=
